HIERARCHY
ROOT Hips
{
	OFFSET 0.0 50.0 50.0
	CHANNELS 6 Xposition Yposition Zposition Zrotation Yrotation Xrotation
	JOINT Left
	{
		OFFSET 100 0 0
		CHANNELS 3 Zrotation Yrotation Xrotation
		JOINT LeftNear
		{
			OFFSET 50 0 50.0
			CHANNELS 3 Zrotation Yrotation Xrotation
            End Site
            {
                OFFSET 0 0 0
            }
		}
	    JOINT LeftFar
		{
			OFFSET 50 0 -30.0
			CHANNELS 3 Zrotation Yrotation Xrotation
            End Site
            {
                OFFSET 0 0 0
            }
		}
	}
}
MOTION
Frames: 3
Frame Time: 0.2
0.0 0.0 0.0 0.0 0.0 0.0 0.0 0.0 0.0 0.0 0.0 0.0 0.0 0.0 0.0
0.0 0.0 0.0 0.0 30.0 0 0.0 30.0 0 0.0 30.0 0.0 0.0 0.0 0.0
0.0 0.0 0.0 0.0 90.0 0 0.0 90.0 0 0.0 90.0 0.0 0.0 0.0 0.0
